<?xml version="1.0" encoding="UTF-8"?>
<svg id="Layer_1" data-name="Layer 1" xmlns="http://www.w3.org/2000/svg" viewBox="0 0 255.12 210.64">
  <path d="M240.9,119.72c-1.01,8.84-3.26,17.4-6.75,25.59-10.37,24.34-30.64,42.47-54.47,53.41-18.95,8.71-39.84,12.84-60.69,11.75-12.9-.67-26.65-3.39-38.08-9.64-7.69-4.2-14.34-10.08-18.34-17.98-2.69-5.31-3.53-10.2-3.98-16.03-.06-.71-.11-1.41-.15-1.8-19-11.61-34.28-18.15-38.13-44.92h-5.45c-4.1,0-7.82-1.66-10.51-4.35-2.69-2.69-4.35-6.4-4.35-10.51v-19.15c0-4.1,1.66-7.82,4.35-10.51,2.69-2.69,6.4-4.35,10.51-4.35h7.38c2.16-4.26,5.4-7.85,9.01-10.94,3.99-3.61,9.46-5.56,9.46-6.68,0-14.23,5.73-27.68,17.08-36.46,10.2-7.9,23.38-11.26,36.15-10.9,7.35.2,16.32,2.41,23.34,1.46,5.56-.75,11.97-3.96,17.46-5.68,14.64-4.56,28.05-1.34,39.58,8.38,4.46,3.76,7.44,7.67,11.44,11.52,2.9,2.8,6.6,4.79,10.12,6.75,10.91,6.07,22.15,11.02,31.32,19.94,3.37,3.28,6.29,6.91,8.6,11.03,1.99,3.56,3.53,7.48,4.5,11.85,8.64,1.49,14.83,9.01,14.83,17.68,0,5.31-.04,10.74-.04,16.11,0,7.67-7.97,13.99-14.18,14.42" fill="#ffd82b"/>
  <path d="M33.89,80.99c0-6.49,5.38-10.6,10.91-14.84,5.06-3.88,10.28-7.87,10.28-13.48,0-9.91,3.04-16.98,7.43-22.02,6.08-6.97,14.68-9.93,21.36-11.07,7.22-1.24,13.46-.52,19.58.19,5.22.6,10.34,1.2,15.74.47,5.05-.68,9.43-2.37,13.55-3.95,8.01-3.08,15.16-5.83,24.89-1.34,6.28,2.9,10.21,7.16,14.12,11.39,2.67,2.89,5.32,5.76,8.65,8.02,4.67,3.18,9.83,5.92,14.93,8.62,16.17,8.58,31.76,16.85,31.85,38.01l-3.95.02c-.08-18.78-14.64-26.51-29.75-34.52-5.2-2.76-10.47-5.56-15.32-8.85-3.71-2.52-6.51-5.56-9.33-8.61-3.64-3.93-7.3-7.9-12.86-10.47-8.22-3.8-14.63-1.34-21.82,1.43-4.35,1.67-8.95,3.44-14.44,4.18-5.9.8-11.26.18-16.71-.45-5.84-.68-11.81-1.37-18.47-.22-6,1.03-13.7,3.65-19.03,9.77-3.81,4.38-6.45,10.6-6.45,19.42,0,7.55-6.01,12.15-11.84,16.62-4.74,3.63-9.34,7.16-9.34,11.7h-3.96Z"/>
  <path d="M227.17,110.34c0,23.72-9.74,43.01-24.47,57.41-17.14,16.75-41.05,26.83-64.19,29.49-12.55,1.44-25.43.77-36.34-1.9-10.47-2.57-19.18-7.01-24.18-13.25-4.37-5.44-4.74-10.2-5.09-14.65-.38-4.86-.72-9.28-8.14-13.68-1.72-1.02-2.03-1.21-2.37-1.4-15.02-8.84-28.51-16.78-28.51-42.01h3.96c0,22.99,12.56,30.38,26.54,38.61l2.38,1.4c9.19,5.45,9.61,10.85,10.07,16.79.3,3.86.62,7.99,4.22,12.47,4.44,5.52,12.39,9.52,22.05,11.89,10.45,2.57,22.84,3.2,34.95,1.81,22.34-2.57,45.39-12.28,61.88-28.39,14.01-13.69,23.26-32.03,23.26-54.58h3.96Z"/>
  <path d="M93.84,60.5c.08-3.06.9-5.06,2.51-6,3.05-1.78,6.17.34,7.71,3.58,1.26,2.66,1.31,6.11.55,8.43-2.87,8.73,4.29,10.59,6.7,14.49h-18.69c-3.53-2.22-5.65-5.69-5.63-8.99.02-6.93,6.73-6.6,6.86-11.5" fill-rule="evenodd"/>
  <path d="M149.04,60.5c.08-3.06.9-5.06,2.51-6,3.05-1.78,6.17.34,7.71,3.58,1.26,2.66,1.31,6.11.54,8.43-2.87,8.73,4.29,10.59,6.7,14.49h-18.69c-3.53-2.22-5.65-5.69-5.64-8.99.02-6.93,6.73-6.6,6.86-11.5" fill-rule="evenodd"/>
  <path d="M85.21,134.59c0,1.27.13,2.47.36,3.58.88,4.14,3.35,7.38,6.79,9.59,3.55,2.28,8.14,3.49,13.13,3.49,2.25,0,4.57-.24,6.9-.74,10.27-2.2,14.86,1.18,19.47,4.58,2.25,1.66,4.51,3.32,7.49,4.08,2.59.65,5.27,1,7.94,1,5.19,0,10.29-1.29,14.46-4.1,4.13-2.78,7.37-7.08,8.9-13.11.63-2.48.97-5.26.97-8.36h3.96c0,3.42-.38,6.52-1.09,9.32-1.79,7.07-5.63,12.14-10.52,15.43-4.86,3.27-10.74,4.78-16.67,4.78-2.99,0-6-.38-8.9-1.12-3.74-.95-6.31-2.84-8.87-4.73-3.89-2.87-7.77-5.72-16.31-3.9-2.62.56-5.22.83-7.72.83-5.74,0-11.08-1.43-15.27-4.13-4.31-2.77-7.4-6.86-8.52-12.1-.3-1.4-.46-2.87-.46-4.4h3.96Z"/>
  <rect x="26.17" y="86.41" width="3.78" height="19.58"/>
  <rect x="14.4" y="86.41" width="3.78" height="19.58"/>
  <path d="M20.07,94.32h5.37c.24,0,.44-.07.56-.19.11-.11.18-.32.18-.6h3.78c0,1.33-.48,2.44-1.27,3.25-.84.85-1.99,1.32-3.25,1.32h-5.37v-3.78Z"/>
  <path d="M39.4,94.32h5.37c.24,0,.44-.07.56-.19.11-.11.18-.32.18-.6h3.78c0,1.33-.49,2.44-1.27,3.25-.84.85-1.99,1.32-3.24,1.32h-5.37v-3.78Z"/>
  <rect x="33.73" y="90.19" width="3.78" height="15.81"/>
  <path d="M45.51,106v-15.81h-8v-3.78h8.49c.92,0,1.74.34,2.34.94.59.59.94,1.4.94,2.34v16.3h-3.78Z"/>
  <rect x="53.06" y="90.19" width="3.78" height="15.81"/>
  <path d="M56.84,86.41h8.49c.92,0,1.74.34,2.34.94.59.59.94,1.4.94,2.34v4.77c0,1.08-.33,1.94-.87,2.66-.5.65-1.15,1.12-1.89,1.48l-7.12,3.51v-4.2l.04-.02,5.43-2.67c.24-.12.44-.25.54-.39.06-.07.09-.19.09-.37v-4.28h-8v-3.78Z"/>
  <polygon points="103.07 98.13 103.07 106 99.29 106 99.29 98.13 101.21 96.21 103.07 98.13"/>
  <polygon points="95.83 86.41 99.29 91.71 99.29 94.32 96.5 94.32 92.52 88.23 91.33 86.41 95.83 86.41"/>
  <rect x="72.4" y="90.19" width="3.78" height="15.81"/>
  <path d="M76.18,86.41h8.49c.92,0,1.74.34,2.34.94.59.59.94,1.4.94,2.34v4.77c0,1.08-.33,1.94-.87,2.66-.5.65-1.15,1.12-1.89,1.48l-7.12,3.51v-4.2l.04-.02,5.43-2.67c.24-.12.43-.25.54-.39.06-.07.09-.19.09-.37v-4.28h-8v-3.78Z"/>
  <polygon points="106.53 86.41 105.56 87.9 103.07 91.71 103.07 94.32 105.86 94.32 111.03 86.41 106.53 86.41"/>
  <rect x="134.39" y="86.47" width="3.78" height="19.58"/>
  <rect x="122.62" y="86.47" width="3.78" height="19.58"/>
  <path d="M128.29,94.37h5.37c.24,0,.44-.07.56-.19.11-.11.18-.32.18-.6h3.78c0,1.33-.48,2.44-1.27,3.25-.84.85-1.99,1.32-3.24,1.32h-5.37v-3.78Z"/>
  <path d="M147.62,94.37h5.37c.24,0,.44-.07.56-.19.11-.11.18-.32.18-.6h3.78c0,1.33-.49,2.44-1.27,3.25-.84.85-1.99,1.32-3.24,1.32h-5.37v-3.78Z"/>
  <rect x="141.95" y="90.25" width="3.78" height="15.81"/>
  <path d="M153.73,106.05v-15.81h-8v-3.78h8.49c.92,0,1.74.34,2.34.95.59.59.94,1.4.94,2.34v16.3h-3.78Z"/>
  <rect x="161.28" y="90.25" width="3.78" height="12.03"/>
  <path d="M165.06,86.47h8.49c.92,0,1.74.34,2.34.95.59.59.94,1.4.94,2.34v2.38h-3.78v-1.89h-8v-3.78Z"/>
  <rect x="180.62" y="86.47" width="3.78" height="19.58"/>
  <path d="M196.17,106.05v-4.28c0-1.08-.33-1.94-.87-2.66-.49-.65-1.15-1.12-1.89-1.48l-7.12-3.51v4.2l.04.02,5.43,2.67c.24.12.43.25.54.39.06.08.09.19.09.37v4.28h3.78Z"/>
  <path d="M165.06,106.05h8.49c.92,0,1.74-.34,2.34-.95.59-.59.94-1.4.94-2.34v-2.38h-3.78v1.89h-8v3.78Z"/>
  <path d="M196.17,86.41v4.28c0,1.08-.33,1.94-.87,2.66-.49.65-1.15,1.12-1.89,1.48l-7.12,3.51v-4.2l.04-.02,5.43-2.67c.24-.12.43-.25.54-.39.06-.07.09-.19.09-.37v-4.28h3.78Z"/>
  <rect x="199.95" y="86.47" width="3.78" height="19.58"/>
  <rect x="207.51" y="86.47" width="3.78" height="19.58"/>
  <path d="M223.06,102.18v-4.28c0-1.08-.33-1.94-.87-2.66-.49-.65-1.15-1.12-1.89-1.48l-7.12-3.51v4.2l.04.02,5.43,2.67c.24.12.43.25.54.39.06.08.09.19.09.37v4.28h3.78Z"/>
  <rect x="219.28" y="86.47" width="3.78" height="19.58"/>
  <rect x="226.84" y="90.25" width="3.78" height="12.03"/>
  <path d="M230.62,86.47h8.49c.92,0,1.74.34,2.34.95.59.59.94,1.4.94,2.34v2.38h-3.78v-1.89h-8v-3.78Z"/>
  <path d="M230.62,106.05h8.49c.92,0,1.74-.34,2.34-.95.59-.59.94-1.4.94-2.34v-2.38h-3.78v1.89h-8v3.78Z"/>
  <path d="M234.4,94.72h4.71c.92,0,1.74.34,2.34.94.59.59.94,1.4.94,2.34v2.38l-1.89,1.27-1.89-1.27v-1.89h-4.22v-3.78Z"/>
  <rect x="95.51" y="113.61" width="3.78" height="15.81"/>
  <path d="M99.29,109.83h8.49c.92,0,1.74.34,2.34.95.59.59.94,1.4.94,2.34v4.77c0,1.08-.33,1.94-.87,2.66-.49.65-1.15,1.12-1.89,1.48l-7.12,3.51v-4.2l.04-.02,5.43-2.67c.24-.12.43-.25.54-.39.06-.08.09-.19.09-.37v-4.28h-8v-3.78Z"/>
  <path d="M120.51,117.74h5.37c.24,0,.44-.07.56-.19.11-.11.18-.32.18-.6h3.78c0,1.33-.48,2.44-1.27,3.24-.84.85-1.99,1.32-3.25,1.32h-5.37v-3.78Z"/>
  <rect x="114.85" y="113.61" width="3.78" height="15.81"/>
  <path d="M126.62,129.42v-15.81h-8v-3.78h8.49c.92,0,1.74.34,2.34.95.59.59.94,1.4.94,2.34v16.3h-3.78Z"/>
  <rect x="134.17" y="113.61" width="3.78" height="12.03"/>
  <path d="M137.95,109.83h8.49c.92,0,1.74.34,2.34.95.59.59.94,1.4.94,2.34v2.38h-3.78v-1.89h-8v-3.78Z"/>
  <path d="M137.95,129.42h8.49c.92,0,1.74-.34,2.34-.95.59-.59.94-1.4.94-2.34v-2.38h-3.78v1.89h-8v3.78Z"/>
  <rect x="153.5" y="113.61" width="3.78" height="12.03"/>
  <path d="M157.28,129.42h8.49c.92,0,1.74-.34,2.34-.95.59-.59.94-1.4.94-2.34v-2.38h-3.78v1.89h-8v3.78Z"/>
  <path d="M157.28,109.83h8.49c.92,0,1.74.34,2.34.95.59.59.94,1.4.94,2.34v2.38h-3.78v-1.89h-8v-3.78Z"/>
  <path d="M159.17,121.17h6.6c.92,0,1.74-.34,2.34-.95.59-.59.94-1.4.94-2.34v-2.38l-1.97-.83-1.8.83v1.89h-6.11v3.78Z"/>
  <path d="M91.73,113.61h-11.01c-.51,0-.74.3-.74.79v1.15l8.09,4.16,1.64.84c1.48.83,2.03,1.99,2.03,3.18v1.4c0,2.4-1.91,4.28-4.31,4.28h-11.25v-3.78h11.01c.5,0,.74-.29.74-.78v-.98l-8.09-4.16-1.64-.84c-1.48-.83-2.03-1.99-2.03-3.18v-1.57c0-2.4,1.91-4.28,4.31-4.28h11.25v3.78Z"/>
  <path d="M72.41,119.71c-3.82,0-5.78-2.85-5.78-9.88,0,7.04-1.96,9.88-5.78,9.88,3.82,0,5.78,2.85,5.78,9.88,0-7.03,1.96-9.88,5.78-9.88" fill-rule="evenodd"/>
  <path d="M49.28,119.71c3.82,0,5.78-2.85,5.78-9.88,0,7.04,1.96,9.88,5.78,9.88-3.82,0-5.78,2.85-5.78,9.88,0-7.03-1.96-9.88-5.78-9.88" fill-rule="evenodd"/>
  <path d="M172.82,119.71c3.82,0,5.78-2.85,5.78-9.88,0,7.04,1.96,9.88,5.78,9.88-3.82,0-5.78,2.85-5.78,9.88,0-7.03-1.96-9.88-5.78-9.88" fill-rule="evenodd"/>
  <path d="M195.95,119.71c-3.82,0-5.78-2.85-5.78-9.88,0,7.04-1.96,9.88-5.78,9.88,3.82,0,5.78,2.85,5.78,9.88,0-7.03,1.96-9.88,5.78-9.88" fill-rule="evenodd"/>
</svg>