<?xml version="1.0" encoding="UTF-8"?>
<svg id="Layer_1" data-name="Layer 1" xmlns="http://www.w3.org/2000/svg" viewBox="0 0 932 769.51">
  <path d="M880.06,437.35c-3.69,32.31-11.89,63.58-24.64,93.5-37.89,88.91-111.95,155.14-198.99,195.12-69.23,31.81-145.56,46.89-221.72,42.91-47.13-2.46-97.37-12.38-139.09-35.2-28.09-15.36-52.39-36.83-67.01-65.68-9.83-19.4-12.89-37.26-14.55-58.56-.21-2.6-.4-5.16-.54-6.56-69.4-42.42-125.24-66.29-139.31-164.12h-19.92c-14.99,0-28.56-6.08-38.38-15.9-9.82-9.82-15.9-23.39-15.9-38.38v-69.96c0-14.99,6.08-28.56,15.9-38.38,9.82-9.82,23.4-15.9,38.38-15.9h26.96c7.89-15.58,19.74-28.67,32.93-39.96,14.58-13.17,34.55-20.3,34.55-24.39,0-51.98,20.95-101.12,62.38-133.21,37.27-28.86,85.39-41.12,132.04-39.82,26.83.75,59.63,8.8,85.26,5.34,20.32-2.74,43.73-14.48,63.79-20.74,53.47-16.67,102.46-4.9,144.6,30.61,16.3,13.74,27.18,28.02,41.78,42.09,10.61,10.22,24.12,17.5,36.97,24.65,39.86,22.18,80.93,40.25,114.44,72.84,12.31,11.98,22.98,25.23,31.4,40.28,7.28,13,12.89,27.33,16.44,43.29,31.56,5.43,54.18,32.92,54.18,64.59,0,19.38-.14,39.22-.14,58.87,0,28.01-29.1,51.11-51.8,52.68"/>
  <path d="M123.8,295.89c0-23.7,19.64-38.74,39.85-54.23,18.49-14.17,37.55-28.76,37.55-49.24,0-36.19,11.1-62.04,27.13-80.44,22.2-25.48,53.63-36.26,78.02-40.46,26.37-4.54,49.18-1.9,71.54.69,19.06,2.21,37.78,4.37,57.48,1.71,18.46-2.49,34.44-8.64,49.51-14.44,29.27-11.26,55.39-21.31,90.91-4.89,22.93,10.61,37.31,26.16,51.57,41.6,9.74,10.54,19.43,21.03,31.61,29.31,17.06,11.61,35.92,21.61,54.55,31.5,59.08,31.35,116.03,61.57,116.37,138.85l-14.42.06c-.3-68.62-53.49-96.85-108.67-126.12-19.01-10.09-38.25-20.3-55.96-32.34-13.54-9.21-23.79-20.31-34.1-31.47-13.29-14.38-26.67-28.87-46.99-38.26-30.03-13.89-53.46-4.88-79.71,5.22-15.87,6.11-32.71,12.58-52.74,15.29-21.57,2.91-41.13.65-61.04-1.66-21.35-2.47-43.14-4.99-67.48-.8-21.91,3.77-50.04,13.33-69.54,35.71-13.93,15.99-23.57,38.72-23.57,70.94,0,27.58-21.95,44.4-43.25,60.72-17.31,13.27-34.13,26.16-34.13,42.75h-14.48Z" fill="#fff"/>
  <path d="M829.91,403.09c0,86.65-35.57,157.13-89.39,209.74-62.6,61.19-149.96,98.02-234.5,107.74-45.86,5.27-92.91,2.82-132.76-6.96-38.23-9.39-70.05-25.62-88.35-48.41-15.97-19.89-17.33-37.28-18.59-53.53-1.38-17.76-2.65-33.91-29.73-49.99-6.29-3.73-7.43-4.4-8.64-5.11-54.88-32.29-104.15-61.29-104.15-153.48h14.48c0,83.98,45.87,110.97,96.96,141.04l8.7,5.11c33.57,19.92,35.11,39.65,36.8,61.35,1.1,14.09,2.28,29.18,15.43,45.55,16.2,20.18,45.26,34.77,80.55,43.44,38.19,9.38,83.44,11.71,127.67,6.62,81.6-9.38,165.83-44.85,226.07-103.73,51.16-50.01,84.98-117.02,84.98-199.39h14.47Z" fill="#fff"/>
  <path d="M342.81,221.02c.29-11.19,3.29-18.48,9.18-21.93,11.14-6.51,22.55,1.24,28.15,13.08,4.6,9.71,4.78,22.33,1.99,30.8-10.5,31.88,15.66,38.69,24.49,52.93h-68.28c-12.89-8.1-20.62-20.77-20.59-32.84.08-25.31,24.58-24.12,25.04-42.03" fill="#fff" fill-rule="evenodd"/>
  <path d="M544.49,221.02c.29-11.19,3.29-18.48,9.18-21.93,11.14-6.51,22.55,1.24,28.15,13.08,4.6,9.71,4.78,22.33,1.99,30.8-10.5,31.88,15.66,38.69,24.49,52.93h-68.28c-12.89-8.1-20.62-20.77-20.59-32.84.08-25.31,24.58-24.12,25.04-42.03" fill="#fff" fill-rule="evenodd"/>
  <path d="M311.29,491.67c0,4.65.46,9.01,1.33,13.09,3.23,15.11,12.24,26.95,24.79,35.03,12.96,8.34,29.73,12.76,47.98,12.76,8.22,0,16.69-.89,25.21-2.71,37.53-8.03,54.3,4.32,71.13,16.72,8.23,6.06,16.47,12.13,27.37,14.89,9.45,2.39,19.26,3.64,29.02,3.64,18.95,0,37.59-4.73,52.81-14.99,15.09-10.16,26.93-25.86,32.51-47.91,2.29-9.05,3.54-19.21,3.54-30.52h14.47c0,12.49-1.41,23.82-3.99,34.03-6.54,25.84-20.56,44.34-38.45,56.39-17.76,11.96-39.23,17.48-60.9,17.48-10.91,0-21.91-1.41-32.52-4.09-13.66-3.46-23.04-10.37-32.41-17.26-14.22-10.48-28.38-20.91-59.6-14.23-9.58,2.05-19.06,3.05-28.2,3.05-20.98,0-40.47-5.22-55.79-15.08-15.73-10.12-27.03-25.05-31.13-44.19-1.1-5.12-1.67-10.49-1.67-16.09h14.48Z" fill="#fff"/>
  <rect x="95.61" y="315.69" width="13.81" height="71.54" fill="#fff"/>
  <rect x="52.6" y="315.69" width="13.8" height="71.54" fill="#fff"/>
  <path d="M73.31,344.56h19.61c.88,0,1.61-.24,2.04-.69.41-.42.66-1.16.66-2.2h13.81c0,4.87-1.77,8.92-4.65,11.86-3.07,3.12-7.27,4.84-11.86,4.84h-19.61v-13.81Z" fill="#fff"/>
  <path d="M143.94,344.56h19.6c.88,0,1.61-.24,2.04-.69.41-.42.66-1.16.66-2.2h13.81c0,4.87-1.77,8.92-4.66,11.86-3.07,3.12-7.27,4.84-11.85,4.84h-19.6v-13.81Z" fill="#fff"/>
  <rect x="123.23" y="329.49" width="13.81" height="57.74" fill="#fff"/>
  <path d="M166.24,387.23v-57.74h-29.21v-13.8h31.01c3.37,0,6.36,1.26,8.56,3.45,2.16,2.16,3.45,5.11,3.45,8.55v59.54h-13.81Z" fill="#fff"/>
  <rect x="193.86" y="329.49" width="13.81" height="57.74" fill="#fff"/>
  <path d="M207.66,315.69h31.02c3.37,0,6.36,1.26,8.56,3.45,2.15,2.16,3.44,5.11,3.44,8.55v17.43c0,3.93-1.19,7.1-3.19,9.72-1.81,2.38-4.2,4.09-6.9,5.42l-26.03,12.81v-15.35l.14-.07,19.84-9.75c.88-.43,1.59-.9,1.99-1.42.21-.27.33-.71.33-1.36v-15.63h-29.21v-13.8Z" fill="#fff"/>
  <polygon points="376.54 358.48 376.54 387.23 362.73 387.23 362.73 358.48 369.76 351.46 376.54 358.48" fill="#fff"/>
  <polygon points="350.09 315.69 362.73 335.02 362.73 344.56 352.53 344.56 338 322.34 333.65 315.69 350.09 315.69" fill="#fff"/>
  <rect x="264.49" y="329.49" width="13.8" height="57.74" fill="#fff"/>
  <path d="M278.29,315.69h31.02c3.37,0,6.36,1.26,8.56,3.45,2.16,2.16,3.44,5.11,3.44,8.55v17.43c0,3.93-1.19,7.1-3.19,9.72-1.81,2.38-4.2,4.09-6.9,5.42l-26.03,12.81v-15.35l.14-.07,19.84-9.75c.88-.43,1.59-.9,1.99-1.42.21-.27.33-.71.33-1.36v-15.63h-29.21v-13.8Z" fill="#fff"/>
  <polygon points="389.18 315.69 385.63 321.13 376.54 335.02 376.54 344.56 386.74 344.56 405.62 315.69 389.18 315.69" fill="#fff"/>
  <rect x="490.96" y="315.89" width="13.8" height="71.55" fill="#fff"/>
  <rect x="447.95" y="315.89" width="13.8" height="71.55" fill="#fff"/>
  <path d="M468.65,344.76h19.61c.88,0,1.61-.24,2.04-.69.41-.42.67-1.16.67-2.2h13.8c0,4.87-1.77,8.91-4.65,11.86-3.07,3.12-7.27,4.84-11.85,4.84h-19.61v-13.8Z" fill="#fff"/>
  <path d="M539.28,344.76h19.6c.88,0,1.61-.24,2.04-.69.41-.42.66-1.16.66-2.2h13.81c0,4.87-1.77,8.91-4.66,11.86-3.07,3.12-7.27,4.84-11.85,4.84h-19.6v-13.8Z" fill="#fff"/>
  <rect x="518.57" y="329.7" width="13.81" height="57.74" fill="#fff"/>
  <path d="M561.59,387.44v-57.74h-29.21v-13.81h31.01c3.37,0,6.37,1.26,8.56,3.45,2.16,2.16,3.45,5.11,3.45,8.55v59.54h-13.81Z" fill="#fff"/>
  <rect x="589.2" y="329.7" width="13.81" height="43.93" fill="#fff"/>
  <path d="M603.01,315.89h31.01c3.37,0,6.36,1.26,8.56,3.45,2.16,2.16,3.44,5.11,3.44,8.55v8.7h-13.81v-6.9h-29.21v-13.81Z" fill="#fff"/>
  <rect x="659.83" y="315.89" width="13.81" height="71.55" fill="#fff"/>
  <path d="M716.66,387.44v-15.63c0-3.93-1.19-7.1-3.19-9.72-1.81-2.37-4.2-4.09-6.9-5.42l-26.03-12.81v15.35l.15.07,19.84,9.75c.88.43,1.59.9,1.99,1.42.21.27.33.71.33,1.36v15.63h13.8Z" fill="#fff"/>
  <path d="M603.01,387.44h31.01c3.37,0,6.36-1.26,8.56-3.45,2.16-2.16,3.44-5.11,3.44-8.55v-8.71h-13.81v6.9h-29.21v13.81Z" fill="#fff"/>
  <path d="M716.66,315.69v15.63c0,3.93-1.19,7.1-3.19,9.73-1.81,2.37-4.2,4.09-6.9,5.41l-26.03,12.81v-15.34l.15-.07,19.84-9.75c.88-.43,1.59-.9,1.99-1.43.21-.27.33-.71.33-1.36v-15.63h13.8Z" fill="#fff"/>
  <rect x="730.46" y="315.89" width="13.81" height="71.55" fill="#fff"/>
  <rect x="758.08" y="315.89" width="13.8" height="71.55" fill="#fff"/>
  <path d="M814.9,373.29v-15.63c0-3.93-1.19-7.1-3.19-9.72-1.81-2.37-4.2-4.09-6.9-5.42l-26.03-12.81v15.35l.15.07,19.84,9.75c.88.43,1.59.9,1.99,1.43.21.27.33.71.33,1.36v15.63h13.8Z" fill="#fff"/>
  <rect x="801.1" y="315.89" width="13.8" height="71.55" fill="#fff"/>
  <rect x="828.71" y="329.7" width="13.81" height="43.93" fill="#fff"/>
  <path d="M842.52,315.89h31.01c3.37,0,6.37,1.26,8.56,3.45,2.16,2.16,3.45,5.11,3.45,8.55v8.7h-13.81v-6.9h-29.21v-13.81Z" fill="#fff"/>
  <path d="M842.52,387.44h31.01c3.37,0,6.37-1.26,8.56-3.45,2.16-2.16,3.45-5.11,3.45-8.55v-8.71h-13.81v6.9h-29.21v13.81Z" fill="#fff"/>
  <path d="M856.32,346.02h17.21c3.37,0,6.37,1.26,8.56,3.45,2.16,2.16,3.45,5.11,3.45,8.55v8.7l-6.92,4.66-6.89-4.66v-6.9h-15.41v-13.8Z" fill="#fff"/>
  <rect x="348.92" y="415.05" width="13.81" height="57.74" fill="#fff"/>
  <path d="M362.73,401.24h31.01c3.37,0,6.36,1.26,8.56,3.45,2.16,2.16,3.44,5.11,3.44,8.55v17.43c0,3.93-1.19,7.1-3.19,9.72-1.81,2.37-4.2,4.09-6.9,5.42l-26.03,12.81v-15.35l.15-.07,19.84-9.75c.88-.43,1.59-.9,1.99-1.42.21-.27.33-.71.33-1.36v-15.63h-29.21v-13.81Z" fill="#fff"/>
  <path d="M440.26,430.11h19.6c.88,0,1.61-.24,2.04-.69.41-.42.66-1.16.66-2.2h13.81c0,4.87-1.77,8.91-4.66,11.85-3.06,3.12-7.27,4.84-11.85,4.84h-19.6v-13.8Z" fill="#fff"/>
  <rect x="419.55" y="415.05" width="13.81" height="57.74" fill="#fff"/>
  <path d="M462.57,472.79v-57.74h-29.21v-13.81h31.02c3.36,0,6.36,1.26,8.56,3.45,2.16,2.16,3.44,5.11,3.44,8.55v59.54h-13.81Z" fill="#fff"/>
  <rect x="490.14" y="415.05" width="13.8" height="43.93" fill="#fff"/>
  <path d="M503.94,401.24h31.01c3.37,0,6.36,1.26,8.56,3.45,2.16,2.16,3.44,5.11,3.44,8.55v8.7h-13.8v-6.9h-29.21v-13.81Z" fill="#fff"/>
  <path d="M503.94,472.79h31.01c3.37,0,6.36-1.26,8.56-3.45,2.16-2.16,3.44-5.11,3.44-8.55v-8.71h-13.8v6.9h-29.21v13.81Z" fill="#fff"/>
  <rect x="560.77" y="415.05" width="13.81" height="43.93" fill="#fff"/>
  <path d="M574.58,472.79h31.01c3.37,0,6.37-1.26,8.56-3.45,2.16-2.16,3.45-5.11,3.45-8.55v-8.71h-13.81v6.9h-29.21v13.81Z" fill="#fff"/>
  <path d="M574.58,401.24h31.01c3.37,0,6.37,1.26,8.56,3.45,2.16,2.16,3.45,5.11,3.45,8.55v8.7h-13.81v-6.9h-29.21v-13.81Z" fill="#fff"/>
  <path d="M581.48,442.67h24.11c3.37,0,6.37-1.26,8.56-3.45,2.16-2.16,3.45-5.11,3.45-8.55v-8.71l-7.22-3.05-6.59,3.05v6.9h-22.31v13.81Z" fill="#fff"/>
  <path d="M335.12,415.05h-40.23c-1.87,0-2.7,1.1-2.7,2.89v4.2l29.54,15.21,5.99,3.08c5.41,3.04,7.4,7.26,7.4,11.62v5.1c0,8.76-6.99,15.65-15.73,15.65h-41.09v-13.81h40.23c1.83,0,2.7-1.08,2.7-2.84v-3.6l-29.54-15.21-5.99-3.08c-5.41-3.04-7.4-7.25-7.4-11.62v-5.75c0-8.76,6.99-15.65,15.73-15.65h41.09v13.81Z" fill="#fff"/>
  <path d="M264.53,437.34c-13.97,0-21.12-10.4-21.12-36.1,0,25.7-7.15,36.1-21.12,36.1,13.97,0,21.12,10.4,21.12,36.1,0-25.7,7.15-36.1,21.12-36.1" fill="#fff" fill-rule="evenodd"/>
  <path d="M180.05,437.34c13.97,0,21.12-10.4,21.12-36.1,0,25.7,7.15,36.1,21.12,36.1-13.97,0-21.12,10.4-21.12,36.1,0-25.7-7.15-36.1-21.12-36.1" fill="#fff" fill-rule="evenodd"/>
  <path d="M631.35,437.34c13.97,0,21.12-10.4,21.12-36.1,0,25.7,7.15,36.1,21.12,36.1-13.97,0-21.12,10.4-21.12,36.1,0-25.7-7.15-36.1-21.12-36.1" fill="#fff" fill-rule="evenodd"/>
  <path d="M715.84,437.34c-13.97,0-21.12-10.4-21.12-36.1,0,25.7-7.15,36.1-21.12,36.1,13.97,0,21.12,10.4,21.12,36.1,0-25.7,7.15-36.1,21.12-36.1" fill="#fff" fill-rule="evenodd"/>
</svg>